<svg fill="none" xmlns="http://www.w3.org/2000/svg" viewBox="0 0 150 150"><rect y="-1" width="150" height="151" rx="11" fill="#F8F8F8"/><path d="M112.323 23.153a12.5 12.5 0 00-10.816-6.267l-52.76-.08a12.5 12.5 0 00-10.835 6.233l-26.45 45.65a12.5 12.5 0 00-.02 12.5l26.31 45.733a12.5 12.5 0 0010.816 6.267l52.76.081a12.498 12.498 0 0010.835-6.234l26.45-45.65a12.5 12.5 0 00.02-12.5l-26.31-45.733z" fill="#fff" stroke="#1E7E7E"/><path d="M71.971 83.226c1.348-2.329 4.71-2.329 6.058 0l24.328 42.02c1.351 2.334-.333 5.254-3.03 5.254H50.673c-2.696 0-4.38-2.92-3.029-5.254l24.328-42.02z" fill="#69D2D2" stroke="#fff" stroke-width="3"/><path d="M78.029 66.774c-1.348 2.329-4.71 2.329-6.058 0l-24.328-42.02c-1.35-2.334.333-5.254 3.03-5.254h48.655c2.696 0 4.38 2.92 3.029 5.254l-24.328 42.02z" fill="#1E7E7E" stroke="#fff" stroke-width="3"/><path d="M104.971 26.226c1.348-2.329 4.71-2.329 6.058 0l24.328 42.02c1.351 2.334-.333 5.254-3.029 5.254H83.672c-2.696 0-4.38-2.92-3.029-5.254l24.328-42.02z" fill="#259E9E" stroke="#fff" stroke-width="3"/><path d="M111.029 123.774c-1.348 2.329-4.71 2.329-6.058 0l-24.328-42.02c-1.35-2.334.333-5.254 3.03-5.254h48.655c2.696 0 4.38 2.92 3.029 5.254l-24.328 42.02z" fill="#1E7E7E" stroke="#fff" stroke-width="3"/><path fill-rule="evenodd" clip-rule="evenodd" d="M71.703 77.773a5 5 0 000-4.79l-23.788-43.59c-1.895-3.474-6.882-3.474-8.778 0L15.35 72.983a5 5 0 000 4.79l23.787 43.59c1.896 3.473 6.883 3.473 8.778 0l23.788-43.59z" fill="#165F5F"/></svg>