<svg fill="none" xmlns="http://www.w3.org/2000/svg" viewBox="0 0 438 147"><path d="M144.323 24.153c-2.227-3.8709-6.35-6.2597-10.816-6.2666l-52.7601-.0811c-4.4658-.0069-8.5961 2.3692-10.8349 6.2333L43.4616 69.6898c-2.2389 3.8641-2.2462 8.629-.0192 12.5l26.3098 45.7322c2.227 3.871 6.3499 6.26 10.8157 6.267l52.7601.081c4.466.007 8.596-2.369 10.835-6.234l26.451-45.6507c2.238-3.8641 2.246-8.629.019-12.5l-26.31-45.7323z" fill="#fff" stroke="#2BB9B9"/><path d="M138.115 126.434c-.721 1.184-2.004 1.91-3.39 1.919l-48.2378.313c-3.1148.02-5.0564-3.371-3.4627-6.047l24.8125-41.6656c.721-1.2113 2.027-1.9534 3.437-1.9534h48.607c3.121 0 5.04 3.4149 3.416 6.0804l-25.182 41.3536z" fill="url(#paint0_linear)"/><path d="M48.1534 78.9662c-.715-1.2188-.7338-2.7244-.0497-3.9607l23.9268-43.2361c1.5159-2.7393 5.4491-2.7539 6.9852-.0259l24.3463 43.2354c.704 1.2499.684 2.7811-.051 4.0128L78.9645 119.78c-1.5587 2.611-5.346 2.597-6.8848-.026L48.1534 78.9662z" fill="url(#paint1_linear)"/><path d="M135.359 23.0978c1.432 0 2.755.7653 3.468 2.0067l24.887 43.3002c1.533 2.6667-.392 5.9932-3.468 5.9932h-48.392c-1.453 0-2.792-.7875-3.497-2.0574L84.3014 29.0403c-1.4812-2.6661.4467-5.9425 3.4966-5.9425h47.561z" fill="url(#paint2_linear)"/><path d="M249.56 83.888c.768 0 1.408.256 1.92.768.576.512.864 1.152.864 1.92s-.288 1.408-.864 1.92c-.512.512-1.152.768-1.92.768h-6.432v17.856c0 .832-.288 1.536-.864 2.112-.576.512-1.28.768-2.112.768-.832 0-1.504-.256-2.016-.768-.512-.576-.768-1.28-.768-2.112V89.264h-28.224c-.768 0-1.44-.288-2.016-.864-.576-.64-.864-1.344-.864-2.112s.224-1.408.672-1.92l30.912-40.416c.512-.768 1.312-1.152 2.4-1.152.832 0 1.504.288 2.016.864.576.512.864 1.184.864 2.016v38.208h6.432zm-12.192 0v-30.72l-23.232 30.72h23.232zm57.088 27.072c-5.056 0-9.312-1.504-12.768-4.512-3.456-3.008-6.08-7.104-7.872-12.288-1.728-5.248-2.592-11.168-2.592-17.76 0-6.656.864-12.576 2.592-17.76 1.728-5.184 4.32-9.28 7.776-12.288 3.52-3.008 7.808-4.512 12.864-4.512 5.056 0 9.312 1.504 12.768 4.512 3.52 2.944 6.144 7.04 7.872 12.288 1.792 5.184 2.688 11.104 2.688 17.76 0 6.592-.896 12.512-2.688 17.76-1.728 5.184-4.352 9.28-7.872 12.288-3.456 3.008-7.712 4.512-12.768 4.512zm0-5.952c5.504 0 9.728-2.56 12.672-7.68 3.008-5.184 4.512-12.16 4.512-20.928 0-8.832-1.504-15.808-4.512-20.928-2.944-5.184-7.168-7.776-12.672-7.776-5.44 0-9.664 2.592-12.672 7.776-2.944 5.12-4.416 12.096-4.416 20.928 0 8.768 1.472 15.744 4.416 20.928 3.008 5.12 7.232 7.68 12.672 7.68zm84.741-21.12c.768 0 1.408.256 1.92.768.576.512.864 1.152.864 1.92s-.288 1.408-.864 1.92c-.512.512-1.152.768-1.92.768h-6.432v17.856c0 .832-.288 1.536-.864 2.112-.576.512-1.28.768-2.112.768-.832 0-1.504-.256-2.016-.768-.512-.576-.768-1.28-.768-2.112V89.264h-28.224c-.768 0-1.44-.288-2.016-.864-.576-.64-.864-1.344-.864-2.112s.224-1.408.672-1.92l30.912-40.416c.512-.768 1.312-1.152 2.4-1.152.832 0 1.504.288 2.016.864.576.512.864 1.184.864 2.016v38.208h6.432zm-12.192 0v-30.72l-23.232 30.72h23.232z" fill="#595959"/><defs><linearGradient id="paint0_linear" x1="111" y1="124" x2="141" y2="37" gradientUnits="userSpaceOnUse"><stop stop-color="#2BB9B9"/><stop offset="1" stop-color="#B4DEBD"/></linearGradient><linearGradient id="paint1_linear" x1="51.5" y1="95.5" x2="120" y2="32.5" gradientUnits="userSpaceOnUse"><stop stop-color="#2BB9B9"/><stop offset="1" stop-color="#B4DEBD"/></linearGradient><linearGradient id="paint2_linear" x1="93" y1="89.5" x2="132" y2="31.5" gradientUnits="userSpaceOnUse"><stop stop-color="#2BB9B9"/><stop offset="1" stop-color="#B4DEBD"/></linearGradient></defs></svg>