<svg fill="none" xmlns="http://www.w3.org/2000/svg" viewBox="0 0 388 133"><path d="M233.56 76.888c.768 0 1.408.256 1.92.768.576.512.864 1.152.864 1.92s-.288 1.408-.864 1.92c-.512.512-1.152.768-1.92.768h-6.432v17.856c0 .832-.288 1.536-.864 2.112-.576.512-1.28.768-2.112.768-.832 0-1.504-.256-2.016-.768-.512-.576-.768-1.28-.768-2.112V82.264h-28.224c-.768 0-1.44-.288-2.016-.864-.576-.64-.864-1.344-.864-2.112s.224-1.408.672-1.92l30.912-40.416c.512-.768 1.312-1.152 2.4-1.152.832 0 1.504.288 2.016.864.576.512.864 1.184.864 2.016v38.208h6.432zm-12.192 0v-30.72l-23.232 30.72h23.232zm57.088 27.072c-5.056 0-9.312-1.504-12.768-4.512-3.456-3.008-6.08-7.104-7.872-12.288-1.728-5.248-2.592-11.168-2.592-17.76 0-6.656.864-12.576 2.592-17.76 1.728-5.184 4.32-9.28 7.776-12.288 3.52-3.008 7.808-4.512 12.864-4.512 5.056 0 9.312 1.504 12.768 4.512 3.52 2.944 6.144 7.04 7.872 12.288 1.792 5.184 2.688 11.104 2.688 17.76 0 6.592-.896 12.512-2.688 17.76-1.728 5.184-4.352 9.28-7.872 12.288-3.456 3.008-7.712 4.512-12.768 4.512zm0-5.952c5.504 0 9.728-2.56 12.672-7.68 3.008-5.184 4.512-12.16 4.512-20.928 0-8.832-1.504-15.808-4.512-20.928-2.944-5.184-7.168-7.776-12.672-7.776-5.44 0-9.664 2.592-12.672 7.776-2.944 5.12-4.416 12.096-4.416 20.928 0 8.768 1.472 15.744 4.416 20.928 3.008 5.12 7.232 7.68 12.672 7.68zm84.741-21.12c.768 0 1.408.256 1.92.768.576.512.864 1.152.864 1.92s-.288 1.408-.864 1.92c-.512.512-1.152.768-1.92.768h-6.432v17.856c0 .832-.288 1.536-.864 2.112-.576.512-1.28.768-2.112.768-.832 0-1.504-.256-2.016-.768-.512-.576-.768-1.28-.768-2.112V82.264h-28.224c-.768 0-1.44-.288-2.016-.864-.576-.64-.864-1.344-.864-2.112s.224-1.408.672-1.92l30.912-40.416c.512-.768 1.312-1.152 2.4-1.152.832 0 1.504.288 2.016.864.576.512.864 1.184.864 2.016v38.208h6.432zm-12.192 0v-30.72l-23.232 30.72h23.232z" fill="#595959"/><g filter="url(#filter0_d)"><path d="M104.506 9.386c4.288.007 8.246 2.3 10.383 6.016l26.31 45.733a12 12 0 01-.018 12l-26.451 45.651a12.001 12.001 0 01-10.401 5.984l-52.76-.081a12.001 12.001 0 01-10.383-6.016L14.876 72.94a12 12 0 01.018-12l26.45-45.65a12 12 0 0110.402-5.985l52.76.081z" fill="#fff"/></g><path d="M81.029 75.226l24.328 42.02c1.351 2.334-.333 5.254-3.029 5.254H53.672c-2.696 0-4.38-2.92-3.029-5.254l24.328-42.02c1.348-2.329 4.71-2.329 6.058 0z" fill="#69D2D2" stroke="#fff" stroke-width="3"/><path d="M74.971 58.774l-24.328-42.02c-1.35-2.334.333-5.254 3.03-5.254h48.655c2.696 0 4.38 2.92 3.029 5.254l-24.328 42.02c-1.348 2.329-4.71 2.329-6.058 0z" fill="#1E7E7E" stroke="#fff" stroke-width="3"/><path d="M114.029 18.226l24.328 42.02c1.351 2.334-.333 5.254-3.029 5.254H86.672c-2.696 0-4.38-2.92-3.029-5.254l24.328-42.02c1.348-2.329 4.71-2.329 6.058 0z" fill="#259E9E" stroke="#fff" stroke-width="3"/><path d="M107.971 115.774l-24.328-42.02c-1.35-2.334.333-5.254 3.03-5.254h48.655c2.696 0 4.38 2.92 3.029 5.254l-24.328 42.02c-1.348 2.329-4.71 2.329-6.058 0z" fill="#1E7E7E" stroke="#fff" stroke-width="3"/><path fill-rule="evenodd" clip-rule="evenodd" d="M74.703 69.773a5 5 0 000-4.79l-23.788-43.59c-1.895-3.474-6.882-3.474-8.778 0L18.35 64.983a5 5 0 000 4.79l23.787 43.59c1.896 3.473 6.883 3.473 8.778 0l23.788-43.59z" fill="#165F5F"/><defs><filter id="filter0_d" x="-8.395" y="-20.956" width="172.865" height="178.01" filterUnits="userSpaceOnUse" color-interpolation-filters="sRGB"><feFlood flood-opacity="0" result="BackgroundImageFix"/><feColorMatrix in="SourceAlpha" values="0 0 0 0 0 0 0 0 0 0 0 0 0 0 0 0 0 0 127 0"/><feOffset dy="1.012"/><feGaussianBlur stdDeviation="2.024"/><feColorMatrix values="0 0 0 0 0 0 0 0 0 0 0 0 0 0 0 0 0 0 0.25 0"/><feBlend in2="BackgroundImageFix" result="effect1_dropShadow"/><feBlend in="SourceGraphic" in2="effect1_dropShadow" result="shape"/></filter></defs></svg>