<svg fill="none" xmlns="http://www.w3.org/2000/svg" viewBox="0 0 1024 151"><rect width="1024" height="151" rx="10" fill="transparent"/><path d="M53 39c26.1171 0 47.289 21.1721 47.289 47.2892V114C74.1721 114 53 92.8279 53 66.7108V39z" fill="url(#paint0_linear)"/><path d="M106.711 86.2892C106.711 60.1721 127.883 39 154 39v27.7108C154 92.8279 132.828 114 106.711 114V86.2892z" fill="url(#paint1_linear)"/><path d="M211.656 43.8c3.52 0 6.688.832 9.504 2.496 2.816 1.6 4.992 3.872 6.528 6.816 1.6 2.88 2.4 6.144 2.4 9.792 0 3.648-.8 6.976-2.4 9.984-1.536 3.008-3.712 5.376-6.528 7.104-2.816 1.728-5.984 2.592-9.504 2.592h-19.872v25.536c0 .832-.288 1.536-.864 2.112-.512.512-1.184.768-2.016.768-.832 0-1.536-.256-2.112-.768-.512-.576-.768-1.28-.768-2.112V46.68c0-.832.256-1.504.768-2.016.576-.576 1.28-.864 2.112-.864h22.752zm0 33.216c3.712 0 6.72-1.344 9.024-4.032 2.304-2.688 3.456-6.048 3.456-10.08 0-3.968-1.152-7.2-3.456-9.696-2.304-2.496-5.312-3.744-9.024-3.744h-19.872v27.552h19.872zm82.927-15.072c.832 0 1.504.288 2.016.864.576.576.864 1.28.864 2.112v43.2c0 .832-.288 1.536-.864 2.112-.512.512-1.184.768-2.016.768-.832 0-1.536-.256-2.112-.768-.512-.576-.768-1.28-.768-2.112v-6.432c-1.6 2.88-4 5.312-7.2 7.296s-6.688 2.976-10.464 2.976c-4.288 0-8.16-1.12-11.616-3.36-3.392-2.24-6.08-5.312-8.064-9.216-1.92-3.904-2.88-8.288-2.88-13.152 0-4.864.992-9.216 2.976-13.056 1.984-3.904 4.672-6.944 8.064-9.12 3.456-2.176 7.264-3.264 11.424-3.264 3.84 0 7.36.928 10.56 2.784 3.2 1.856 5.6 4.288 7.2 7.296V64.92c0-.832.256-1.536.768-2.112.576-.576 1.28-.864 2.112-.864zm-19.968 44.64c3.328 0 6.304-.864 8.928-2.592 2.688-1.792 4.768-4.224 6.24-7.296 1.536-3.136 2.304-6.624 2.304-10.464 0-3.712-.768-7.104-2.304-10.176-1.472-3.072-3.552-5.472-6.24-7.2-2.624-1.792-5.6-2.688-8.928-2.688-3.328 0-6.336.864-9.024 2.592-2.624 1.728-4.704 4.128-6.24 7.2-1.472 3.008-2.208 6.432-2.208 10.272s.736 7.328 2.208 10.464c1.472 3.072 3.52 5.504 6.144 7.296 2.688 1.728 5.728 2.592 9.12 2.592zm92.79-44.64c.832 0 1.504.288 2.016.864.576.512.864 1.216.864 2.112v41.568c0 4.992-1.056 9.248-3.168 12.768-2.048 3.584-4.896 6.304-8.544 8.16-3.584 1.856-7.712 2.784-12.384 2.784-2.24 0-4.608-.288-7.104-.864-2.432-.576-4.544-1.312-6.336-2.208-1.728-.896-2.72-1.824-2.976-2.784-.448-.448-.672-.96-.672-1.536 0-.64.288-1.152.864-1.536.256-.192.576-.288.96-.288s1.12.224 2.208.672l2.016.864c3.968 1.536 7.68 2.304 11.136 2.304 5.696 0 10.144-1.632 13.344-4.896 3.264-3.2 4.896-7.552 4.896-13.056v-5.952c-1.6 3.456-4.128 6.176-7.584 8.16-3.456 1.92-7.072 2.88-10.848 2.88-4.416 0-8.416-1.088-12-3.264-3.52-2.24-6.304-5.312-8.352-9.216-2.048-3.904-3.072-8.288-3.072-13.152 0-4.8 1.024-9.152 3.072-13.056s4.832-6.944 8.352-9.12c3.584-2.24 7.552-3.36 11.904-3.36 4.032 0 7.712 1.024 11.04 3.072 3.392 1.984 5.888 4.384 7.488 7.2V64.92c0-.832.256-1.536.768-2.112.576-.576 1.28-.864 2.112-.864zm-20.832 44.64c3.52 0 6.656-.832 9.408-2.496 2.816-1.728 4.992-4.128 6.528-7.2 1.6-3.136 2.4-6.656 2.4-10.56 0-3.904-.8-7.392-2.4-10.464-1.536-3.072-3.712-5.44-6.528-7.104-2.752-1.728-5.888-2.592-9.408-2.592-3.456 0-6.592.896-9.408 2.688-2.752 1.728-4.928 4.128-6.528 7.2-1.536 3.072-2.304 6.496-2.304 10.272 0 3.84.768 7.296 2.304 10.368 1.6 3.072 3.776 5.504 6.528 7.296 2.816 1.728 5.952 2.592 9.408 2.592zm91.928-22.944c0 .768-.288 1.44-.864 2.016-.576.512-1.248.768-2.016.768h-36.288c0 3.84.768 7.296 2.304 10.368 1.6 3.008 3.84 5.408 6.72 7.2 2.944 1.728 6.4 2.592 10.368 2.592 3.072 0 5.824-.64 8.256-1.92 2.432-1.28 4.384-2.912 5.856-4.896.704-.576 1.376-.864 2.016-.864.64 0 1.216.256 1.728.768s.768 1.088.768 1.728c0 .704-.32 1.376-.96 2.016-2.048 2.496-4.64 4.544-7.776 6.144-3.072 1.6-6.336 2.4-9.792 2.4-4.928 0-9.28-1.056-13.056-3.168s-6.72-5.056-8.832-8.832c-2.112-3.84-3.168-8.256-3.168-13.248 0-5.248 1.024-9.824 3.072-13.728 2.112-3.968 4.896-6.976 8.352-9.024 3.456-2.112 7.136-3.168 11.04-3.168 3.84 0 7.424.896 10.752 2.688 3.392 1.792 6.144 4.416 8.256 7.872 2.112 3.456 3.2 7.552 3.264 12.288zm-22.272-17.28c-3.712 0-7.168 1.28-10.368 3.84-3.136 2.56-5.152 6.24-6.048 11.04h32.736v-.768c-.32-2.88-1.28-5.376-2.88-7.488-1.6-2.176-3.616-3.808-6.048-4.896-2.368-1.152-4.832-1.728-7.392-1.728zm98.176-22.56c.832 0 1.472.256 1.92.768.512.512.768 1.152.768 1.92v61.44c0 .96-.288 1.728-.864 2.304-.576.512-1.28.768-2.112.768-.448 0-.896-.096-1.344-.288-.384-.192-.704-.416-.96-.672l-41.184-55.488v53.856c0 .704-.288 1.312-.864 1.824-.512.512-1.12.768-1.824.768-.768 0-1.408-.256-1.92-.768s-.768-1.12-.768-1.824V46.68c0-.896.256-1.6.768-2.112.576-.512 1.248-.768 2.016-.768 1.024 0 1.792.352 2.304 1.056l41.376 55.776V46.488c0-.768.256-1.408.768-1.92s1.152-.768 1.92-.768zm78.004 42.624c0 4.8-1.056 9.152-3.168 13.056s-5.024 6.976-8.736 9.216c-3.712 2.176-7.84 3.264-12.384 3.264-4.544 0-8.672-1.088-12.384-3.264-3.712-2.24-6.624-5.312-8.736-9.216-2.112-3.904-3.168-8.256-3.168-13.056 0-4.8 1.056-9.152 3.168-13.056s5.024-6.976 8.736-9.216c3.712-2.24 7.84-3.36 12.384-3.36 4.544 0 8.672 1.12 12.384 3.36 3.712 2.24 6.624 5.312 8.736 9.216 2.112 3.904 3.168 8.256 3.168 13.056zm-5.76 0c0-3.84-.8-7.296-2.4-10.368-1.6-3.072-3.84-5.472-6.72-7.2-2.816-1.792-5.952-2.688-9.408-2.688-3.456 0-6.592.896-9.408 2.688-2.816 1.728-5.056 4.128-6.72 7.2-1.6 3.072-2.4 6.528-2.4 10.368 0 3.776.8 7.2 2.4 10.272 1.664 3.072 3.904 5.504 6.72 7.296 2.816 1.728 5.952 2.592 9.408 2.592 3.456 0 6.592-.864 9.408-2.592 2.88-1.728 5.12-4.128 6.72-7.2 1.6-3.072 2.4-6.528 2.4-10.368zm40.581-18.912v32.16c0 2.432.448 4.096 1.344 4.992.896.832 2.08 1.248 3.552 1.248.384 0 .864-.064 1.44-.192.576-.192 1.024-.288 1.344-.288.576 0 1.056.256 1.44.768.448.448.672.992.672 1.632 0 .896-.512 1.664-1.536 2.304-1.024.576-2.24.864-3.648.864-1.728 0-3.264-.16-4.608-.48-1.344-.32-2.656-1.28-3.936-2.88-1.216-1.6-1.824-4.16-1.824-7.68V67.512h-7.008c-.768 0-1.44-.256-2.016-.768-.512-.512-.768-1.152-.768-1.92s.256-1.408.768-1.92c.576-.512 1.248-.768 2.016-.768h7.008V51.48c0-.832.256-1.504.768-2.016.576-.576 1.28-.864 2.112-.864.832 0 1.504.288 2.016.864.576.512.864 1.184.864 2.016v10.656h9.6c.704 0 1.312.288 1.824.864.576.576.864 1.216.864 1.92 0 .768-.256 1.408-.768 1.92-.512.448-1.152.672-1.92.672h-9.6z" fill="#595959"/><path d="M702.865 43.8c.832 0 1.504.288 2.016.864.576.512.864 1.184.864 2.016 0 .768-.288 1.44-.864 2.016-.512.512-1.184.768-2.016.768h-31.968V73.56h27.648c.832 0 1.504.256 2.016.768.576.512.864 1.184.864 2.016 0 .832-.288 1.504-.864 2.016-.512.512-1.184.768-2.016.768h-27.648v28.992c0 .832-.288 1.536-.864 2.112-.512.512-1.184.768-2.016.768-.896 0-1.632-.256-2.208-.768-.512-.576-.768-1.28-.768-2.112V46.68c0-.832.256-1.504.768-2.016.576-.576 1.28-.864 2.112-.864h34.944zm72.457 42.624c0 4.8-1.056 9.152-3.168 13.056s-5.024 6.976-8.736 9.216c-3.712 2.176-7.84 3.264-12.384 3.264-4.544 0-8.672-1.088-12.384-3.264-3.712-2.24-6.624-5.312-8.736-9.216-2.112-3.904-3.168-8.256-3.168-13.056 0-4.8 1.056-9.152 3.168-13.056s5.024-6.976 8.736-9.216c3.712-2.24 7.84-3.36 12.384-3.36 4.544 0 8.672 1.12 12.384 3.36 3.712 2.24 6.624 5.312 8.736 9.216 2.112 3.904 3.168 8.256 3.168 13.056zm-5.76 0c0-3.84-.8-7.296-2.4-10.368-1.6-3.072-3.84-5.472-6.72-7.2-2.816-1.792-5.952-2.688-9.408-2.688-3.456 0-6.592.896-9.408 2.688-2.816 1.728-5.056 4.128-6.72 7.2-1.6 3.072-2.4 6.528-2.4 10.368 0 3.776.8 7.2 2.4 10.272 1.664 3.072 3.904 5.504 6.72 7.296 2.816 1.728 5.952 2.592 9.408 2.592 3.456 0 6.592-.864 9.408-2.592 2.88-1.728 5.12-4.128 6.72-7.2 1.6-3.072 2.4-6.528 2.4-10.368zm67.654-24.192c.832 0 1.504.288 2.016.864.576.512.864 1.184.864 2.016v27.072c0 6.272-1.76 11.104-5.28 14.496-3.52 3.328-8.384 4.992-14.592 4.992-6.144 0-10.976-1.664-14.496-4.992-3.456-3.392-5.184-8.224-5.184-14.496V65.112c0-.832.256-1.504.768-2.016.576-.576 1.28-.864 2.112-.864.832 0 1.504.288 2.016.864.576.512.864 1.184.864 2.016v27.072c0 4.608 1.216 8.128 3.648 10.56 2.432 2.368 5.856 3.552 10.272 3.552 4.48 0 7.936-1.184 10.368-3.552 2.496-2.432 3.744-5.952 3.744-10.56V65.112c0-.832.256-1.504.768-2.016.576-.576 1.28-.864 2.112-.864zm54.56-1.44c5.952 0 10.304 1.76 13.056 5.28 2.816 3.456 4.224 8.064 4.224 13.824v28.224c0 .832-.288 1.536-.864 2.112-.576.512-1.248.768-2.016.768-.832 0-1.536-.256-2.112-.768-.512-.576-.768-1.28-.768-2.112V80.184c0-4.16-1.056-7.52-3.168-10.08-2.048-2.624-5.248-3.936-9.6-3.936-2.752 0-5.376.64-7.872 1.92-2.432 1.28-4.416 3.008-5.952 5.184-1.536 2.112-2.304 4.416-2.304 6.912v27.936c0 .832-.288 1.536-.864 2.112-.512.512-1.184.768-2.016.768-.832 0-1.536-.256-2.112-.768-.512-.576-.768-1.28-.768-2.112V65.112c0-.832.256-1.504.768-2.016.576-.576 1.28-.864 2.112-.864.832 0 1.504.288 2.016.864.576.512.864 1.184.864 2.016v5.28c1.728-2.752 4.192-5.024 7.392-6.816 3.264-1.856 6.592-2.784 9.984-2.784zM977.42 39.96c.832 0 1.504.288 2.016.864.576.512.864 1.184.864 2.016v65.28c0 .832-.288 1.536-.864 2.112-.512.512-1.184.768-2.016.768-.832 0-1.536-.256-2.112-.768-.512-.576-.768-1.28-.768-2.112v-6.72c-1.6 2.944-4 5.44-7.2 7.488-3.136 2.048-6.624 3.072-10.464 3.072-4.224 0-8.064-1.088-11.52-3.264-3.392-2.24-6.08-5.312-8.064-9.216-1.984-3.904-2.976-8.288-2.976-13.152 0-4.8.992-9.152 2.976-13.056s4.672-6.944 8.064-9.12c3.456-2.24 7.264-3.36 11.424-3.36 3.776 0 7.264.96 10.464 2.88 3.2 1.856 5.632 4.288 7.296 7.296V42.84c0-.832.256-1.504.768-2.016.576-.576 1.28-.864 2.112-.864zm-19.968 66.624c3.328 0 6.304-.864 8.928-2.592 2.688-1.728 4.768-4.128 6.24-7.2 1.536-3.136 2.304-6.624 2.304-10.464 0-3.776-.768-7.2-2.304-10.272-1.472-3.072-3.552-5.472-6.24-7.2-2.624-1.792-5.6-2.688-8.928-2.688-3.328 0-6.336.896-9.024 2.688-2.624 1.728-4.704 4.128-6.24 7.2-1.472 3.072-2.208 6.496-2.208 10.272 0 3.84.736 7.296 2.208 10.368 1.536 3.072 3.616 5.504 6.24 7.296 2.688 1.728 5.696 2.592 9.024 2.592z" fill="#2BB9B9"/><defs><linearGradient id="paint0_linear" x1="76.5318" y1="102.551" x2="113.957" y2="36.1142" gradientUnits="userSpaceOnUse"><stop stop-color="#2BB9B9"/><stop offset="1" stop-color="#B4DEBD"/></linearGradient><linearGradient id="paint1_linear" x1="83.93" y1="102.001" x2="129.765" y2="24.7538" gradientUnits="userSpaceOnUse"><stop stop-color="#2BB9B9"/><stop offset="1" stop-color="#B4DEBD"/></linearGradient></defs></svg>